<svg width="80" height="80" viewBox="0 0 80 80" fill="none" xmlns="http://www.w3.org/2000/svg">
<g id="Group 267">
<path id="Vector" d="M80 40C80 62.0871 62.0871 80 40 80C17.9129 80 0 62.0871 0 40C0 17.9129 17.9129 0 40 0C62.0871 0 80 17.9129 80 40Z" fill="#A0A0AB"/>
<path id="Vector_2" d="M73.3278 40.0002C73.3278 58.4061 58.4059 73.3281 39.9999 73.3281C21.594 73.3281 6.66113 58.4061 6.66113 40.0002C6.66113 21.5943 21.594 6.67236 39.9999 6.67236C58.4059 6.67236 73.3278 21.5943 73.3278 40.0002Z" fill="#18181B"/>
<path id="Vector_3" d="M39.9999 79.6931C18.11 79.6931 0.306641 61.8898 0.306641 39.9999C0.306641 18.11 18.11 0.306641 39.9999 0.306641C61.8898 0.306641 79.6931 18.11 79.6931 39.9999C79.6931 41.6433 78.3565 42.9799 76.7131 42.9799C75.0697 42.9799 73.7331 41.6433 73.7331 39.9999C73.7331 21.4077 58.603 6.27761 40.0108 6.27761C21.4187 6.27761 6.27761 21.4077 6.27761 39.9999C6.27761 58.592 21.4077 73.7221 39.9999 73.7221C41.6433 73.7221 42.9799 75.0588 42.9799 76.7021C42.9799 78.3455 41.6433 79.6822 39.9999 79.6822V79.6931Z" fill="#FF3D00"/>
<circle id="Ellipse 7" cx="40.3603" cy="39.6396" r="19.4595" fill="#A0A0AB"/>
<circle id="Ellipse 8" cx="40.3602" cy="39.6395" r="13.6937" fill="#18181B"/>
</g>
</svg>
