<svg width="40" height="40" viewBox="0 0 40 40" fill="none" xmlns="http://www.w3.org/2000/svg">
<g id="layers-two-01">
<path id="Icon" d="M3.3335 24.1669L19.4039 32.2021C19.6225 32.3114 19.7318 32.3661 19.8465 32.3876C19.9481 32.4067 20.0523 32.4067 20.1538 32.3876C20.2685 32.3661 20.3778 32.3114 20.5964 32.2021L36.6668 24.1669M3.3335 15.8336L19.4039 7.79841C19.6225 7.6891 19.7318 7.63444 19.8465 7.61292C19.9481 7.59387 20.0523 7.59387 20.1538 7.61292C20.2685 7.63444 20.3778 7.6891 20.5964 7.79841L36.6668 15.8336L20.5964 23.8688C20.3778 23.9781 20.2685 24.0328 20.1538 24.0543C20.0523 24.0733 19.9481 24.0733 19.8465 24.0543C19.7318 24.0328 19.6225 23.9781 19.4039 23.8688L3.3335 15.8336Z" stroke="#D0D5DD" stroke-width="3.82083" stroke-linecap="round" stroke-linejoin="round"/>
</g>
</svg>
