<svg width="12" height="10" viewBox="0 0 12 10" fill="none" xmlns="http://www.w3.org/2000/svg">
<path d="M5.98571 9.99425C4.84665 9.99425 3.90237 9.82167 3.15246 9.4761C2.40255 9.13094 1.84702 8.6334 1.48586 7.9835C1.12471 7.33399 0.944336 6.56364 0.944336 5.67285V0.466309H2.44415V5.67325C2.44415 6.66388 2.74971 7.42493 3.36084 7.95642C3.97196 8.4879 4.84706 8.75385 5.98571 8.75385C7.12437 8.75385 7.98587 8.4879 8.597 7.95642C9.20813 7.42493 9.51369 6.66388 9.51369 5.67325V0.466309H11.0135V5.67325C11.0135 6.56405 10.8307 7.33399 10.465 7.9839C10.0993 8.63381 9.54581 9.13134 8.80537 9.47651C8.06453 9.82207 7.12478 9.99465 5.98612 9.99465L5.98571 9.99425Z" fill="white"/>
</svg>
