<svg width="11" height="10" viewBox="0 0 11 10" fill="none" xmlns="http://www.w3.org/2000/svg">
<path d="M0 9.83096V0.466309H1.47222L7.45829 6.43673C7.56948 6.53697 7.69426 6.66185 7.83345 6.8118C7.97223 6.96175 8.11142 7.10725 8.2502 7.2479C8.38898 7.38896 8.50923 7.51829 8.61136 7.63631H8.72255C8.72255 7.46373 8.71761 7.2479 8.70855 6.98883C8.69907 6.72975 8.69454 6.50504 8.69454 6.31427V0.466309H10.1392V9.83096H8.76414L2.73607 3.80598C2.52316 3.59702 2.30325 3.36988 2.07635 3.12454C1.84944 2.87921 1.67112 2.68844 1.54182 2.55183H1.44463C1.44463 2.70663 1.44916 2.9265 1.45863 3.21306C1.46769 3.49921 1.47263 3.78779 1.47263 4.07879V9.83096H0Z" fill="white"/>
</svg>
