<svg width="13" height="10" viewBox="0 0 13 10" fill="none" xmlns="http://www.w3.org/2000/svg">
<path d="M6.90169 9.99437C5.64237 9.99437 4.56343 9.81047 3.66568 9.44227C2.76753 9.07407 2.07775 8.52884 1.59634 7.80659C1.11493 7.08393 0.874023 6.19596 0.874023 5.14188C0.874023 4.0878 1.11452 3.20428 1.59634 2.49052C2.07775 1.77715 2.76753 1.23435 3.66568 0.861704C4.56384 0.489057 5.64237 0.302734 6.90169 0.302734C8.161 0.302734 9.21194 0.489057 10.1101 0.861704C11.0083 1.23435 11.7005 1.77715 12.1864 2.49052C12.6724 3.20388 12.9158 4.0878 12.9158 5.14188C12.9158 6.19596 12.6728 7.08433 12.1864 7.80659C11.7005 8.52924 11.0083 9.07447 10.1101 9.44227C9.21194 9.81047 8.14247 9.99437 6.90169 9.99437ZM6.90169 8.75396C7.53134 8.75396 8.11694 8.68566 8.65847 8.54945C9.2 8.41325 9.67441 8.20429 10.0821 7.92258C10.4894 7.64087 10.8065 7.28197 11.0334 6.84587C11.2603 6.40977 11.3735 5.89162 11.3735 5.29183V4.99193C11.3735 4.39214 11.2599 3.87642 11.0334 3.44476C10.8065 3.01311 10.4894 2.65663 10.0821 2.37492C9.67441 2.09321 9.2 1.88668 8.65847 1.75452C8.11694 1.62276 7.53093 1.55688 6.90169 1.55688C6.27244 1.55688 5.66997 1.62276 5.12391 1.75452C4.57743 1.88628 4.10056 2.09321 3.69328 2.37492C3.28559 2.65663 2.97096 3.01351 2.749 3.44476C2.52662 3.87642 2.41584 4.39214 2.41584 4.99193V5.29183C2.41584 5.89162 2.52703 6.40977 2.749 6.84587C2.97137 7.28197 3.28847 7.64128 3.70028 7.92258C4.11209 8.20429 4.58896 8.41325 5.1309 8.54945C5.67243 8.68566 6.26297 8.75396 6.90169 8.75396Z" fill="white"/>
</svg>
