<svg width="11" height="10" viewBox="0 0 11 10" fill="none" xmlns="http://www.w3.org/2000/svg">
<path d="M0.304688 9.83096V0.466309H7.47141C8.10107 0.466309 8.6286 0.591198 9.05483 0.840976C9.48064 1.09116 9.80226 1.42702 10.0201 1.84979C10.2375 2.27255 10.3467 2.7519 10.3467 3.28783C10.3467 3.86943 10.1914 4.39647 9.88133 4.86895C9.57082 5.34143 9.11948 5.69144 8.5273 5.91858L10.5966 9.83056H8.90204L7.01307 6.16392H1.8185V9.83056H0.304688V9.83096ZM1.8185 4.93725H7.12385C7.66085 4.93725 8.07513 4.78529 8.36669 4.48054C8.65825 4.1762 8.80403 3.78334 8.80403 3.30157C8.80403 2.98349 8.74144 2.70421 8.61666 2.46332C8.49147 2.22284 8.30162 2.03854 8.04712 1.91122C7.79221 1.78391 7.48459 1.72045 7.12344 1.72045H1.81809V4.93725H1.8185Z" fill="white"/>
</svg>
